{
  "title": "Paddington 2014 READNFO CAM AUDIO HDRIP XVID MP3 ACAB",
  "uid": 11674697,
  "size": 1256782320,
  "categoryP": "video",
  "categoryS": "movies",
  "magnet": "?xt=urn:btih:ecf0c579f1854e0ba1cd0526ca0b728f28cf1a8c&amp;dn=Paddington+2014+READNFO+CAM+AUDIO+HDRIP+XVID+MP3+ACAB&amp;tr=udp%3A%2F%2Ftracker.openbittorrent.com%3A80&amp;tr=udp%3A%2F%2Fopen.demonii.com%3A1337&amp;tr=udp%3A%2F%2Ftracker.coppersurfer.tk%3A6969&amp;tr=udp%3A%2F%2Fexodus.desync.com%3A6969",
  "seeders": 57,
  "leechers": 6,
  "uploader": "xxxlavalxxx",
  "files": 4,
  "time": 1422808127,
  "description": "[img]http://i.imgur.com/aRAaLAo.jpg[/img]\n &lt;a href=&quot;\nhttp://www.imdb.com/title/tt1109624/&quot; rel=&quot;nofollow&quot; target=&quot;_NEW&quot;&gt;\nhttp://www.imdb.com/title/tt1109624/&lt;/a&gt;\n\n\nA young Peruvian bear travels to London in search of a home. Finding himself lost and alone at Paddington Station, he meets the kindly Brown family, who offer him a temporary haven.\n\nDirector: Paul King\nWriters: Paul King, Hamish McColl (screen story)\nStars: Hugh Bonneville, Sally Hawkins, Julie Walters\nGenres: Comedy | Family\nCountry: UK | France\nLanguage: English\n\n\nREADNFO Reason\n\nRight Took The 720p Dubbed Vid Added Few Filters. Sat On The Encoded Vid And Had To Sync Up. Took A Few Cuts And Near The Begining The Audio Doubled Back On Itself So Cut That Bit Out. First 4-5 Seconds Has No Audio And The End Credits Also Has No Audio But Did Best I Could. Enjoy or not....\n\nFormat                                   : AVI\nFormat/Info                              : Audio Video Interleave\nFile size                                : 1.15 GiB\nDuration                                 : 1h 35mn\nOverall bit rate                         : 1 726 Kbps\n\nVideo\nID                                       : 0\nFormat                                   : MPEG-4 Visual\nFormat profile                           : Advanced Simple@L5\nFormat settings, BVOP                    : 2\nFormat settings, QPel                    : No\nFormat settings, GMC                     : No warppoints\nFormat settings, Matrix                  : Default (H.263)\nCodec ID                                 : XVID\nCodec ID/Hint                            : XviD\nDuration                                 : 1h 35mn\nBit rate                                 : 1 596 Kbps\nWidth                                    : 720 pixels\nHeight                                   : 304 pixels\nDisplay aspect ratio                     : 2.35:1\nFrame rate                               : 29.970 fps\nColor space                              : YUV\nChroma subsampling                       : 4:2:0\nBit depth                                : 8 bits\nScan type                                : Progressive\nCompression mode                         : Lossy\nBits/(Pixel*Frame)                       : 0.243\nStream size                              : 1.07 GiB (93%)\nWriting library                          : XviD 73\n\nAudio\nID                                       : 1\nFormat                                   : MPEG Audio\nFormat version                           : Version 1\nFormat profile                           : Layer 3\nMode                                     : Joint stereo\nMode extension                           : MS Stereo\nCodec ID                                 : 55\nCodec ID/Hint                            : MP3\nDuration                                 : 1h 28mn\nBit rate mode                            : Constant\nBit rate                                 : 128 Kbps\nChannel(s)                               : 2 channels\nSampling rate                            : 44.1 KHz\nCompression mode                         : Lossy\nDelay relative to video                  : 4s 335ms\nStream size                              : 80.8 MiB (7%)\nAlignment                                : Split accross interleaves\nInterleave, duration                     : 36 ms (1.08 video frame)\nInterleave, preload duration             : 500 ms\nWriting library                          : LAME3.99r\n\n\n[img]http://i.imgur.com/FEcson0.png[/img]\n[img]http://i.imgur.com/TMv0lrN.png[/img]\n[img]http://i.imgur.com/Jk2PI7O.png[/img]\n[img]http://i.imgur.com/9kMSXGj.png[/img]\n[img]http://i.imgur.com/e2WGfNa.png[/img]",
  "parsed": {
    "xt": "urn:btih:ecf0c579f1854e0ba1cd0526ca0b728f28cf1a8c",
    "dn": "Paddington 2014 READNFO CAM AUDIO HDRIP XVID MP3 ACAB",
    "tr": [
      "udp://exodus.desync.com:6969",
      "udp://open.demonii.com:1337",
      "udp://tracker.coppersurfer.tk:6969",
      "udp://tracker.openbittorrent.com:80"
    ],
    "infoHash": "ecf0c579f1854e0ba1cd0526ca0b728f28cf1a8c",
    "infoHashBuffer": {
      "type": "Buffer",
      "data": [
        236,
        240,
        197,
        121,
        241,
        133,
        78,
        11,
        161,
        205,
        5,
        38,
        202,
        11,
        114,
        143,
        40,
        207,
        26,
        140
      ]
    },
    "name": "Paddington 2014 READNFO CAM AUDIO HDRIP XVID MP3 ACAB",
    "announce": [
      "udp://exodus.desync.com:6969",
      "udp://open.demonii.com:1337",
      "udp://tracker.coppersurfer.tk:6969",
      "udp://tracker.openbittorrent.com:80"
    ],
    "urlList": []
  },
  "previous": 63,
  "peers": 13,
  "last_updated": "2016-12-25T17:22:18.779Z"
}